<svg xmlns="http://www.w3.org/2000/svg" viewBox="0 0 512 512">
  <!-- Cup body -->
  <path fill="#E76F00" d="M182 360s-22 13 16 17c47 5 71 4 123-5 0 0 14 8 33 16-116 49-263-3-172-28z"/>
  <path fill="#E76F00" d="M170 308s-25 18 26 22c48 4 86 4 151-5 0 0 10 9 25 14-134 39-282 3-202-31z"/>
  <path fill="#E76F00" d="M284 218c28 32-7 60-7 60s70-36 38-82c-31-42-54-63 73-135 0 0-199 50-104 157z"/>
  <!-- Steam wisps -->
  <path fill="#5382A1" d="M426 435s17 14-18 24c-65 20-271 26-328 1-21-9 18-22 30-25 12-3 19-2 19-2-22-15-142 31-61 44 221 46 403-21 358-42z"/>
  <path fill="#5382A1" d="M192 260s-130 31-46 42c35 5 105 4 170-2 53-5 106-16 106-16s-19 8-32 17c-128 34-374 18-303-16 60-28 105-25 105-25z"/>
  <path fill="#5382A1" d="M368 392s10 8-10 14c-36 10-151 14-183 4-11-4 10-9 22-10l25-3c-14-10-91 20-39 28 145 29 258-13 185-33z"/>
</svg>
