<svg xmlns="http://www.w3.org/2000/svg" viewBox="0 0 256 255">
  <defs>
    <linearGradient id="pyBlue" x1="12%" y1="12%" x2="75%" y2="88%">
      <stop offset="0" stop-color="#387EB8"/>
      <stop offset="100%" stop-color="#366994"/>
    </linearGradient>
    <linearGradient id="pyYellow" x1="25%" y1="12%" x2="88%" y2="88%">
      <stop offset="0" stop-color="#FFE052"/>
      <stop offset="100%" stop-color="#FFC331"/>
    </linearGradient>
  </defs>
  <path fill="url(#pyBlue)" d="M126.9 0C62.4 0 66.3 27.3 66.3 27.3l.1 28.3h61.7v8.5H41.8S0 59.1 0 124.2s37.3 62.8 37.3 62.8H59v-30.2s-1.3-37.3 36.7-37.3h63.3s35.5.6 35.5-34.3V35.3S200.1 0 126.9 0zm-35 20.2a11.5 11.5 0 1 1 0 23 11.5 11.5 0 0 1 0-23z"/>
  <path fill="url(#pyYellow)" d="M129.1 254.8c64.5 0 60.6-27.3 60.6-27.3l-.1-28.3H128v-8.5h86.3s41.7 5 41.7-60.1-37.3-62.8-37.3-62.8H197v30.2s1.3 37.3-36.7 37.3H97s-35.5-.6-35.5 34.3v57.9s-5.4 35.3 67.6 35.3zm35-20.2a11.5 11.5 0 1 1 0-23 11.5 11.5 0 0 1 0 23z"/>
</svg>
